<svg width="1024" height="1024" version="1.1" xmlns="http://www.w3.org/2000/svg" desc="Created with imagetracer.js version 1.2.6" ><path fill="rgb(0,0,0)" stroke="rgb(0,0,0)" stroke-width="1" opacity="0" d="M 0 0 L 1024 0 L 1024 1024 L 0 1024 L 0 0 Z M 317 340 L 286 355 L 254 374 L 271 386 Q 232 448 191 509 L 188 511 L 162 510 Q 140 537 121 568 L 105 625 L 102 631 L 103 633 L 173 540 L 177 537 L 211 537 L 215 533 L 301 405 L 319 417 L 319 341 L 317 340 Z M 184 345 L 183 346 L 171 347 L 154 352 Q 136 359 123 370 Q 106 383 96 402 L 87 424 L 83 444 L 83 472 L 84 473 L 85 484 L 90 501 Q 102 528 120 550 Q 119 552 122 551 L 126 543 L 126 473 L 127 472 L 124 469 Q 116 465 114 456 L 114 448 L 117 442 Q 121 436 128 434 Q 141 432 146 438 Q 150 443 152 451 Q 152 459 148 464 L 138 472 L 139 527 L 152 508 L 159 502 L 184 502 L 184 502 L 184 422 L 179 420 Q 173 416 172 409 L 172 401 L 175 395 Q 178 389 186 387 Q 195 386 201 389 Q 207 393 209 401 Q 210 412 205 418 L 196 423 L 195 427 L 195 487 L 197 487 L 262 388 L 247 376 L 245 374 L 261 361 L 248 353 L 227 347 L 214 346 L 213 345 L 184 345 Z M 190 393 L 185 395 L 179 402 Q 178 408 180 412 L 188 417 L 197 416 L 202 409 L 202 401 L 200 397 Q 196 394 190 393 Z M 300 421 L 286 439 L 218 540 L 213 544 L 179 544 L 123 616 L 109 636 L 130 639 L 156 646 L 160 646 L 220 663 L 222 660 L 225 643 L 230 628 L 235 618 Q 238 612 246 610 L 280 611 L 281 612 L 294 608 L 299 603 L 302 594 Q 302 584 299 578 L 300 573 L 305 569 L 305 563 Q 302 561 303 556 L 310 550 L 307 540 L 307 535 L 309 533 L 322 530 L 326 525 L 326 519 L 324 513 L 304 476 L 304 468 L 307 460 L 305 440 L 300 421 Z M 129 441 L 127 442 L 121 449 L 122 459 L 129 464 Q 135 465 139 463 L 144 457 Q 145 450 143 447 Q 140 439 129 441 Z M 737 443 L 735 445 L 735 536 L 736 537 L 736 543 L 755 543 L 755 444 L 755 443 L 737 443 Z M 565 445 L 565 543 L 585 543 L 585 507 L 601 507 L 621 542 L 622 543 L 645 543 L 623 509 L 622 504 L 629 502 Q 637 496 640 485 Q 642 472 639 465 L 632 453 L 624 448 L 613 445 L 565 445 Z M 909 445 L 883 518 L 873 542 L 874 543 L 895 543 L 901 523 L 903 521 L 905 522 L 937 522 L 939 521 Q 944 530 946 542 L 948 543 L 968 543 L 933 447 L 932 445 L 909 445 Z M 977 445 L 977 543 L 978 543 L 998 543 L 998 446 L 998 445 L 977 445 Z M 516 453 L 516 470 Q 515 472 509 471 L 507 471 L 508 487 L 509 486 L 516 486 L 516 529 L 519 536 Q 524 543 536 545 Q 549 547 556 542 L 555 538 L 555 532 L 556 530 L 555 526 L 552 528 Q 544 530 541 527 L 537 524 L 536 520 L 536 487 L 537 486 L 547 486 L 549 486 L 553 487 L 556 486 L 556 471 L 536 471 L 536 453 L 516 453 Z M 394 469 L 383 474 L 379 479 L 378 471 L 368 471 L 367 470 L 363 471 L 361 470 L 357 472 L 357 543 L 358 543 L 378 543 L 378 499 L 380 493 L 388 486 L 397 486 L 402 489 L 406 501 L 406 543 L 426 543 L 426 493 L 424 485 L 420 478 Q 415 471 406 469 L 394 469 Z M 679 469 Q 669 471 663 476 Q 651 484 648 501 L 648 515 Q 650 524 655 531 Q 663 542 680 545 L 698 544 L 708 540 L 716 534 L 722 525 L 725 515 L 725 499 L 719 485 L 705 472 L 696 469 L 679 469 Z M 795 469 L 781 475 Q 770 483 766 499 L 766 517 L 772 531 L 784 541 L 797 545 Q 817 547 827 538 L 835 527 L 821 521 Q 818 520 819 523 Q 814 527 807 529 L 801 529 L 793 526 L 786 517 L 787 513 L 837 513 L 837 499 L 831 483 Q 826 475 817 471 Q 808 467 795 469 Z M 435 470 L 433 472 L 456 506 L 452 514 L 431 543 L 455 543 L 466 524 L 469 522 L 481 542 L 483 543 L 504 543 L 503 540 L 480 507 L 502 474 L 503 470 L 489 470 L 488 471 L 484 470 L 480 471 L 478 477 L 469 491 L 457 473 Q 456 469 450 471 L 448 471 L 437 471 L 435 470 Z M 853 521 L 851 522 Q 845 524 844 531 Q 843 538 847 541 L 853 544 L 863 543 L 868 536 Q 869 529 866 526 Q 863 519 853 521 Z " /><path fill="rgb(0,0,0)" stroke="rgb(0,0,0)" stroke-width="1" opacity="0" d="M 585 462 L 605.5 462 L 612.5 464 L 617 468.5 Q 619.9 472.1 619 479.5 Q 617.8 485.3 613.5 488 L 603.5 491 L 585 491 L 585 462 Z " /><path fill="rgb(0,0,0)" stroke="rgb(0,0,0)" stroke-width="1" opacity="0" d="M 920.5 469 L 933 505 L 908.5 505 L 908 503.5 L 920.5 469 Z " /><path fill="rgb(0,0,0)" stroke="rgb(0,0,0)" stroke-width="1" opacity="0" d="M 798.5 484 Q 809.5 483.5 814 489.5 L 817 495.5 L 817 499 L 786.5 499 L 786 497.5 Q 787.9 489.8 793.5 486 L 798.5 484 Z " /><path fill="rgb(0,0,0)" stroke="rgb(0,0,0)" stroke-width="1" opacity="0" d="M 683.5 485 Q 697.9 484.1 702 493.5 L 705 501.5 L 705 512.5 Q 703.3 521.8 696.5 526 Q 691.8 529.3 682.5 528 L 672 521.5 Q 667.8 515.2 668 504.5 Q 670.3 503.2 669 498.5 L 672 492.5 L 676.5 488 L 683.5 485 Z " /><path fill="rgb(3,59,92)" stroke="rgb(3,59,92)" stroke-width="1" opacity="0.9764705882352941" d="M 316.5 340 L 319 340.5 L 319 417 L 300.5 405 L 215 532.5 L 210.5 537 L 176.5 537 L 173 539.5 L 102.5 633 L 102 630.5 L 105 624.5 L 121 567.5 Q 139.6 537.1 161.5 510 L 187.5 511 L 191 508.5 Q 232.5 448.5 271 385.5 L 254 373.5 L 285.5 355 L 316.5 340 Z " /><path fill="rgb(3,59,92)" stroke="rgb(3,59,92)" stroke-width="1" opacity="0.9764705882352941" d="M 183.5 345 L 212.5 345 L 213.5 346 L 226.5 347 L 247.5 353 L 261 360.5 L 245 373.5 L 246.5 376 L 262 387.5 L 196.5 487 L 195 486.5 L 195 426.5 L 196 423 L 205 417.5 Q 210.2 412.2 209 400.5 Q 206.9 392.6 200.5 389 Q 195.4 385.6 185.5 387 Q 178.3 388.8 175 394.5 L 172 400.5 L 172 408.5 Q 173.4 416 178.5 420 L 184 422 L 184 501.5 L 183.5 502 L 158.5 502 L 152 507.5 L 138.5 527 L 138 471.5 L 148 463.5 Q 151.8 458.8 152 450.5 Q 150.3 442.7 145.5 438 Q 140.5 432 127.5 434 Q 120.8 436.3 117 441.5 L 114 447.5 L 114 455.5 Q 116.4 464.5 123.5 469 L 127 471.5 L 126 472.5 L 126 542.5 L 122 551 Q 119.3 552.1 120 549.5 Q 101.9 528.1 90 500.5 L 85 483.5 L 84 472.5 L 83 471.5 L 83 443.5 L 87 423.5 L 96 401.5 Q 106.4 382.9 122.5 370 Q 135.9 358.9 153.5 352 L 170.5 347 L 182.5 346 L 183.5 345 Z " /><path fill="rgb(3,59,92)" stroke="rgb(3,59,92)" stroke-width="1" opacity="0.9764705882352941" d="M 189.5 393 Q 196.4 393.8 200 397 L 202 400.5 L 202 408.5 L 196.5 416 L 187.5 417 L 180 411.5 Q 177.7 408.3 179 401.5 L 184.5 395 L 189.5 393 Z " /><path fill="rgb(3,59,92)" stroke="rgb(3,59,92)" stroke-width="1" opacity="0.9764705882352941" d="M 299.5 421 L 305 439.5 L 307 459.5 L 304 467.5 L 304 475.5 L 324 512.5 L 326 518.5 L 326 524.5 L 321.5 530 L 308.5 533 L 307 534.5 L 307 539.5 L 310 549.5 L 303 555.5 Q 302.2 560.8 305 562.5 L 305 568.5 L 300 572.5 L 299 577.5 Q 302 584 302 593.5 L 299 602.5 L 293.5 608 L 280.5 612 L 279.5 611 L 245.5 610 Q 238.3 611.8 235 617.5 L 230 627.5 L 225 642.5 L 222 659.5 L 219.5 663 L 159.5 646 L 155.5 646 L 129.5 639 L 109 636 L 123 615.5 L 178.5 544 L 212.5 544 L 218 539.5 L 286 438.5 L 299.5 421 Z " /><path fill="rgb(3,59,92)" stroke="rgb(3,59,92)" stroke-width="1" opacity="0.9764705882352941" d="M 128.5 441 Q 140.3 439.2 143 446.5 Q 145.3 449.7 144 456.5 L 138.5 463 Q 135.3 465.3 128.5 464 L 122 458.5 L 121 448.5 L 126.5 442 L 128.5 441 Z " /><path fill="rgb(3,59,92)" stroke="rgb(3,59,92)" stroke-width="1" opacity="0.9764705882352941" d="M 736.5 443 L 754.5 443 L 755 443.5 L 755 543 L 736 543 L 736 536.5 L 735 535.5 L 735 444.5 L 736.5 443 Z " /><path fill="rgb(3,59,92)" stroke="rgb(3,59,92)" stroke-width="1" opacity="0.9764705882352941" d="M 565 445 L 612.5 445 L 623.5 448 L 632 453 L 639 464.5 Q 641.6 472.4 640 484.5 Q 637.1 496.1 628.5 502 L 622 504 L 623 508.5 L 645 543 L 621.5 543 L 621 541.5 L 600.5 507 L 585 507 L 585 543 L 565 543 L 565 445 Z M 585 462 L 585 491 L 604 491 L 614 488 Q 618 485 619 480 Q 620 472 617 469 L 613 464 L 606 462 L 585 462 Z " /><path fill="rgb(3,59,92)" stroke="rgb(3,59,92)" stroke-width="1" opacity="0.9764705882352941" d="M 909 445 L 931.5 445 L 933 446.5 L 968 543 L 947.5 543 L 946 541.5 Q 943.8 529.8 938.5 521 L 936.5 522 L 904.5 522 L 902.5 521 L 901 522.5 L 895 543 L 873.5 543 L 873 541.5 L 883 517.5 L 909 445 Z M 921 469 L 908 504 L 909 505 L 933 505 L 921 469 Z " /><path fill="rgb(3,59,92)" stroke="rgb(3,59,92)" stroke-width="1" opacity="0.9764705882352941" d="M 977 445 L 997.5 445 L 998 445.5 L 998 543 L 977.5 543 L 977 542.5 L 977 445 Z " /><path fill="rgb(3,59,92)" stroke="rgb(3,59,92)" stroke-width="1" opacity="0.9764705882352941" d="M 516 453 L 536 453 L 536 471 L 556 471 L 556 485.5 L 552.5 487 L 548.5 486 L 546.5 486 L 536.5 486 L 536 486.5 L 536 519.5 L 537 523.5 L 540.5 527 Q 544 529.5 551.5 528 L 554.5 526 L 556 529.5 L 555 531.5 L 555 537.5 L 556 541.5 Q 549.3 546.8 535.5 545 Q 524.2 543.3 519 535.5 L 516 528.5 L 516 486 L 508.5 486 L 507.5 487 L 507 470.5 L 508.5 471 Q 514.5 472.5 516 469.5 L 516 453 Z " /><path fill="rgb(3,59,92)" stroke="rgb(3,59,92)" stroke-width="1" opacity="0.9764705882352941" d="M 393.5 469 L 405.5 469 Q 414.9 471.1 420 477.5 L 424 484.5 L 426 492.5 L 426 543 L 406 543 L 406 500.5 L 402 489 L 396.5 486 L 387.5 486 L 380 492.5 L 378 498.5 L 378 543 L 357.5 543 L 357 542.5 L 357 471.5 L 360.5 470 L 362.5 471 L 366.5 470 L 367.5 471 L 378 471 L 378.5 479 L 382.5 474 L 393.5 469 Z " /><path fill="rgb(3,59,92)" stroke="rgb(3,59,92)" stroke-width="1" opacity="0.9764705882352941" d="M 678.5 469 L 695.5 469 L 704.5 472 L 719 484.5 L 725 498.5 L 725 514.5 L 722 524.5 L 716 534 L 707.5 540 L 697.5 544 L 679.5 545 Q 663.1 541.9 655 530.5 Q 649.9 524.1 648 514.5 L 648 500.5 Q 651.2 484.2 662.5 476 Q 668.9 470.9 678.5 469 Z M 684 485 L 677 488 L 672 493 L 669 499 Q 670 503 668 505 Q 668 515 672 522 L 683 528 Q 692 529 697 526 Q 703 522 705 513 L 705 502 L 702 494 Q 698 484 684 485 Z " /><path fill="rgb(3,59,92)" stroke="rgb(3,59,92)" stroke-width="1" opacity="0.9764705882352941" d="M 794.5 469 Q 808.2 467.3 816.5 471 Q 825.5 475 831 482.5 L 837 498.5 L 837 513 L 786.5 513 L 786 516.5 L 792.5 526 L 800.5 529 L 806.5 529 Q 814.3 527.3 819 522.5 Q 818.3 520.3 820.5 521 L 835 526.5 L 826.5 538 Q 816.7 546.7 796.5 545 L 783.5 541 L 772 530.5 L 766 516.5 L 766 498.5 Q 769.5 483 780.5 475 L 794.5 469 Z M 799 484 L 794 486 Q 788 490 786 498 L 787 499 L 817 499 L 817 496 L 814 490 Q 809 484 799 484 Z " /><path fill="rgb(3,59,92)" stroke="rgb(3,59,92)" stroke-width="1" opacity="0.9764705882352941" d="M 434.5 470 L 436.5 471 L 447.5 471 L 449.5 471 Q 455.5 469.5 457 472.5 L 468.5 491 L 478 476.5 L 480 471 L 483.5 470 L 487.5 471 L 488.5 470 L 503 470 L 502 473.5 L 480 506.5 L 503 539.5 L 504 543 L 482.5 543 L 481 541.5 L 468.5 522 L 466 523.5 L 455 543 L 431 542.5 L 452 513.5 L 456 505.5 L 433 471.5 L 434.5 470 Z " /><path fill="rgb(3,59,92)" stroke="rgb(3,59,92)" stroke-width="1" opacity="0.9764705882352941" d="M 852.5 521 Q 863.3 519.2 866 525.5 Q 869 528.5 868 535.5 L 862.5 543 L 852.5 544 L 847 540.5 Q 843.3 537.7 844 530.5 Q 845.4 524.4 850.5 522 L 852.5 521 Z " /></svg>